<!-- Generator: Adobe Illustrator 19.1.0, SVG Export Plug-In . SVG Version: 6.00 Build 0) -->
<svg
 
xmlns
="
http://www.w3.org/2000/svg
"
 
xmlns:xlink
="
http://www.w3.org/1999/xlink
"
 
version
="
1.1
"
 
id
="
assets
"
 
x
="
0px
"
 
y
="
0px
"
 
viewBox
="
0 0 277 58
"
 
style
="
enable-background:new 0 0 277 58;
"
 
xml:space
="
preserve
"
>
<g
 
id
="
tableau_x5F_sign_x5F_in_x5F_logo_1_
"
>
<polygon
 
style
="
fill:#4E4E4E;
"
 
points
="
38.4,28 31,28 31,19.9 28,19.9 28,28 20.6,28 20.6,30.9 28,30.9 28,39 31,39 31,30.9 38.4,30.9
"
/
>
<polygon
 
style
="
fill:#4E4E4E;
"
 
points
="
23.4,15.3 16.6,15.3 16.6,8 14.3,8 14.3,15.3 7.5,15.3 7.5,17.4 14.3,17.4 14.3,24.7 16.6,24.7 16.6,17.4 23.4,17.4
"
/
>
<polygon
 
style
="
fill:#4E4E4E;
"
 
points
="
34.8,7.8 30.3,7.8 30.3,2.8 28.7,2.8 28.7,7.8 24.2,7.8 24.2,9.3 28.7,9.3 28.7,14.3 30.3,14.3 30.3,9.3 34.8,9.3
"
/
>
<polygon
 
style
="
fill:#4E4E4E;
"
 
points
="
12.9,28.7 8.4,28.7 8.4,23.8 6.8,23.8 6.8,28.7 2.3,28.7 2.3,30.3 6.8,30.2 6.8,35.1 8.4,35.1 8.4,30.2 12.9,30.2
"
/
>
<polygon
 
style
="
fill:#4E4E4E;
"
 
points
="
34.8,49.5 30.3,49.5 30.3,44.6 28.7,44.6 28.7,49.5 24.2,49.5 24.2,51 28.7,51 28.7,56 30.3,56 30.3,51 34.8,51
"
/
>
<polygon
 
style
="
fill:#4E4E4E;
"
 
points
="
51.4,15.3 44.6,15.3 44.6,8 42.3,8 42.3,15.3 35.5,15.3 35.5,17.4 42.3,17.4 42.3,24.7 44.6,24.7 44.6,17.4 51.4,17.4
"
/
>
<polygon
 
style
="
fill:#4E4E4E;
"
 
points
="
51.4,41.4 44.6,41.4 44.6,34.1 42.3,34.1 42.3,41.4 35.5,41.4 35.5,43.5 42.3,43.5 42.3,50.8 44.6,50.8 44.6,43.5 51.4,43.5
"
/
>
<polygon
 
style
="
fill:#4E4E4E;
"
 
points
="
56.8,28.8 52.4,28.8 52.4,23.8 50.7,23.8 50.7,28.8 46.3,28.8 46.3,30.3 50.7,30.3 50.7,35.2 52.4,35.2 52.4,30.3 56.8,30.3
"
/
>
<polygon
 
style
="
fill:#4E4E4E;
"
 
points
="
23.4,41.3 16.6,41.3 16.6,34 14.3,34 14.3,41.3 7.5,41.3 7.5,43.4 14.3,43.4 14.3,50.7 16.6,50.7 16.6,43.4 23.4,43.4
"
/
>
<path
 
style
="
fill-rule:evenodd;clip-rule:evenodd;fill:#4E4E4E;
"
 
d
="
M146.8,25.7c1.8-0.7,3.3-0.9,4.3-0.9c5,0,8.4,3.5,8.4,9 c0,5.7-3.6,9.1-9.8,9.1c-2.2,0-4.3-0.4-6.6-1.2L143,16.4h3.8V25.7z M150,39.5c3.5,0,5.5-2,5.5-5.6c0-3.5-2-5.6-5.2-5.6 c-1.4,0-2.7,0.5-3.6,0.9v9.7C147.9,39.3,149,39.5,150,39.5z
"
/
>
<rect
 
x
="
175
"
 
y
="
12.7
"
 
style
="
fill-rule:evenodd;clip-rule:evenodd;fill:#4E4E4E;
"
 
width
="
4
"
 
height
="
33.3
"
/
>
<path
 
style
="
fill-rule:evenodd;clip-rule:evenodd;fill:#4E4E4E;
"
 
d
="
M199.2,31.5h8.5c-0.1-2.3-1.3-3.4-3.5-3.6 C202.1,27.7,200,29.1,199.2,31.5z M203.5,42.6c-5.7-0.6-8.5-4.6-8.3-9.3c0.2-5.1,3.5-8.8,8.6-8.8c5.3,0,8.4,3.9,8.2,9.8l-12.8,0 c0.3,3.2,2.2,4.8,4.9,5c2.2,0.2,5.3-0.3,7-1.4v3.5C208.7,42.4,206.4,42.9,203.5,42.6z
"
/
>
<path
 
style
="
fill-rule:evenodd;clip-rule:evenodd;fill:#4E4E4E;
"
 
d
="
M266.4,40.1c2.4,0,3.9-1.2,3.9-3.9V24.7h3.8v12 c0,3.8-3,6.2-7.7,6.2c-4.7,0-7.7-2.3-7.7-6.2v-12h3.8v11.5C262.5,38.9,264,40.1,266.4,40.1z
"
/
>
<path
 
style
="
fill-rule:evenodd;clip-rule:evenodd;fill:#4E4E4E;
"
 
d
="
M118.1,42.9c-6.3,0-9.8-3.3-9.8-9.1c0-5.5,3.4-9,8.4-9 c1.7,0,3.1,0.4,4.3,1.2v-1.3h3.8l-0.1,17C123.1,42.4,120.5,42.9,118.1,42.9z M117.7,39.5c0.9,0,1.9-0.1,3.2-0.4l0.1-9.6 c-1.2-0.8-2.4-1.2-3.6-1.2c-3.2,0-5.2,2.1-5.2,5.6C112.2,37.4,114.2,39.5,117.7,39.5z
"
/
>
<polygon
 
style
="
fill:#4E4E4E;
"
 
points
="
80,17.2 83.8,17.2 83.8,27.7 93.8,27.7 93.8,31.2 83.8,31.2 83.8,42.7 80,42.7 80,31.2 70,31.2 70,27.7 80,27.7
"
/
>
<path
 
style
="
fill-rule:evenodd;clip-rule:evenodd;fill:#4E4E4E;
"
 
d
="
M237,42.9c-6.3,0-9.8-3.3-9.8-9.1c0-5.5,3.4-9,8.4-9 c1.7,0,3.1,0.4,4.3,1.2v-1.3h3.8l-0.1,17C242,42.4,239.4,42.9,237,42.9z M236.7,39.5c0.9,0,1.9-0.1,3.2-0.4l0.1-9.6 c-1.2-0.8-2.4-1.2-3.6-1.2c-3.2,0-5.2,2.1-5.2,5.6C231.1,37.4,233.2,39.5,236.7,39.5z
"
/
>
</g>
</svg>